<svg width="64" height="64" viewBox="0 0 64 64" fill="none" xmlns="http://www.w3.org/2000/svg">
<rect width="64" height="64" rx="12" fill="#EFF1F5"/>
<path d="M32.2428 17H46.3414L51 24.9688L38.0048 47.2813C34.613 47.3222 26.9466 47.3794 23.4158 47.2813C19.8851 47.1832 17.8581 45.5241 17.286 44.7068L12.137 35.6346C11.4014 31.2212 13.6081 26.6851 19.2476 22.0264C23.7591 18.2995 29.7908 17.1226 32.2428 17Z" fill="#11111B"/>
<path d="M42.1731 25.7043H48.7933L37.5145 45.3197L29.5457 31.4664H25.0096C24.1106 31.5072 22.8029 30.8534 23.2933 29.2596C23.8879 27.3271 26.8077 26.113 28.0745 25.7043H32.9784C34.0409 27.625 36.313 31.6625 36.9015 32.4471C37.4899 33.2318 37.8823 33.0193 38.0049 32.8149L42.1731 25.7043Z" fill="#FAB387"/>
<path d="M37.1468 18.4712L40.9473 24.9688L37.5146 30.8534L33.7141 24.2332H28.1973C27.4208 24.3558 25.3775 25.0178 23.416 26.6851C20.9641 28.7692 20.9682 30.2486 21.6996 31.7116C22.3126 32.9375 26.7261 33.101 28.8102 32.9375L31.9977 38.6996C28.8102 38.7404 21.8958 38.7976 19.7381 38.6996C17.041 38.577 15.0795 37.2284 13.8535 35.512C12.6275 33.7957 14.8343 26.9303 20.3511 22.8846C24.7646 19.6481 29.875 18.6226 32 18.5L37.1468 18.4712Z" fill="#FAB387"/>
</svg>
